<svg width="51" height="51" viewBox="0 0 51 51" fill="none" xmlns="http://www.w3.org/2000/svg">
<rect x="0.660156" y="0.501587" width="50" height="50" rx="25" fill="#C6E5FC"/>
<path d="M33.3678 26.7213L34.6602 28.1954L28.6325 35.085L25.4294 31.4259L26.7217 29.9518L28.6325 32.1263L33.3678 26.7213ZM23.1217 31.4259L25.8909 34.5622H16.6602V32.4713C16.6602 30.1609 19.9648 28.2895 24.0448 28.2895L25.7894 28.4045L23.1217 31.4259ZM24.0448 17.835C25.024 17.835 25.9632 18.2755 26.6556 19.0598C27.3481 19.844 27.7371 20.9077 27.7371 22.0168C27.7371 23.1259 27.3481 24.1895 26.6556 24.9738C25.9632 25.758 25.024 26.1986 24.0448 26.1986C23.0655 26.1986 22.1264 25.758 21.4339 24.9738C20.7415 24.1895 20.3525 23.1259 20.3525 22.0168C20.3525 20.9077 20.7415 19.844 21.4339 19.0598C22.1264 18.2755 23.0655 17.835 24.0448 17.835Z" fill="#131313"/>
</svg>
