<svg width="51" height="51" viewBox="0 0 51 51" fill="none" xmlns="http://www.w3.org/2000/svg">
<rect x="0.660156" y="0.987549" width="50" height="50" rx="25" fill="#C6E5FC"/>
<path d="M18.9202 34.8896H18.6602C17.7172 34.8896 17.2462 34.8896 16.9532 34.5966C16.6602 34.3046 16.6602 33.8336 16.6602 32.8906V31.7786C16.6602 31.2606 16.6602 31.0016 16.7932 30.7696C16.9262 30.5386 17.1272 30.4216 17.5292 30.1876C20.1752 28.6486 23.9312 27.7826 26.4392 29.2776C26.6072 29.3786 26.7592 29.5006 26.8892 29.6456C27.0235 29.7928 27.1269 29.9654 27.1934 30.1532C27.2599 30.3411 27.2882 30.5403 27.2764 30.7392C27.2647 30.9381 27.2132 31.1326 27.125 31.3113C27.0369 31.49 26.9138 31.6493 26.7632 31.7796C26.643 31.8938 26.4962 31.9763 26.3362 32.0196C26.4562 32.0056 26.5712 31.9896 26.6812 31.9726C27.5922 31.8276 28.3572 31.3396 29.0572 30.8106L30.8652 29.4456C31.1877 29.211 31.5763 29.0846 31.9752 29.0846C32.374 29.0846 32.7626 29.211 33.0852 29.4456C33.6582 29.8786 33.8342 30.5916 33.4712 31.1736C33.0482 31.8516 32.4522 32.7186 31.8802 33.2486C31.3072 33.7786 30.4542 34.2526 29.7582 34.5886C28.9862 34.9616 28.1342 35.1756 27.2672 35.3166C25.5092 35.6006 23.6772 35.5566 21.9372 35.1986C20.9444 34.9945 19.9336 34.8903 18.9202 34.8896ZM19.2462 16.0876C18.8792 16.4546 18.7422 16.9606 18.6912 17.7516C19.2773 17.7436 19.8373 17.5071 20.2517 17.0925C20.6661 16.6778 20.9024 16.1178 20.9102 15.5316C20.1202 15.5836 19.6132 15.7206 19.2462 16.0876ZM30.0742 16.0876C29.7072 15.7206 29.2012 15.5836 28.4102 15.5326C28.4182 16.1188 28.6547 16.6787 29.0693 17.0932C29.4839 17.5076 30.044 17.7439 30.6302 17.7516C30.5782 16.9616 30.4412 16.4546 30.0742 16.0876ZM30.0742 22.9156C29.7072 23.2826 29.2012 23.4196 28.4102 23.4706C28.4182 22.8844 28.6547 22.3245 29.0693 21.9101C29.4839 21.4956 30.044 21.2594 30.6302 21.2516C30.5782 22.0416 30.4412 22.5486 30.0742 22.9156ZM19.2462 22.9156C19.6132 23.2826 20.1192 23.4196 20.9102 23.4706C20.9021 22.8844 20.6656 22.3245 20.251 21.9101C19.8364 21.4956 19.2764 21.2594 18.6902 21.2516C18.7422 22.0416 18.8792 22.5486 19.2462 22.9156Z" fill="#131313"/>
<path fill-rule="evenodd" clip-rule="evenodd" d="M18.6602 19.2516C19.6547 19.2516 20.6085 18.8565 21.3118 18.1532C22.0151 17.45 22.4102 16.4961 22.4102 15.5016H26.9102C26.9102 16.4961 27.3052 17.45 28.0085 18.1532C28.7118 18.8565 29.6656 19.2516 30.6602 19.2516V19.7516C29.6656 19.7516 28.7118 20.1467 28.0085 20.8499C27.3052 21.5532 26.9102 22.507 26.9102 23.5016H22.4102C22.4102 22.507 22.0151 21.5532 21.3118 20.8499C20.6085 20.1467 19.6547 19.7516 18.6602 19.7516V19.2516ZM24.6602 20.5016C24.9254 20.5016 25.1797 20.3962 25.3673 20.2087C25.5548 20.0212 25.6602 19.7668 25.6602 19.5016C25.6602 19.2364 25.5548 18.982 25.3673 18.7945C25.1797 18.6069 24.9254 18.5016 24.6602 18.5016C24.3949 18.5016 24.1406 18.6069 23.953 18.7945C23.7655 18.982 23.6602 19.2364 23.6602 19.5016C23.6602 19.7668 23.7655 20.0212 23.953 20.2087C24.1406 20.3962 24.3949 20.5016 24.6602 20.5016Z" fill="#131313"/>
</svg>
