<svg width="25" height="25" viewBox="0 0 25 25" fill="none" xmlns="http://www.w3.org/2000/svg">
<g clip-path="url(#clip0_1_140)">
<path d="M24.0977 12.0374C24.0977 5.40998 18.725 0.0373535 12.0977 0.0373535C5.47028 0.0373535 0.0976562 5.40988 0.0976562 12.0374C0.0976562 18.0269 4.48591 22.9914 10.2227 23.8916V15.5061H7.17578V12.0374H10.2227V9.3936C10.2227 6.3861 12.0142 4.72485 14.7552 4.72485C16.0682 4.72485 17.4414 4.95923 17.4414 4.95923V7.91235H15.9283C14.4375 7.91235 13.9727 8.83738 13.9727 9.78642V12.0374H17.3008L16.7687 15.5061H13.9727V23.8916C19.7094 22.9914 24.0977 18.0269 24.0977 12.0374Z" fill="#6493C2"/>
<path d="M16.7687 15.5061L17.3008 12.0374H13.9727V9.78642C13.9727 8.83729 14.4376 7.91235 15.9283 7.91235H17.4414V4.95923C17.4414 4.95923 16.0682 4.72485 14.7552 4.72485C12.0142 4.72485 10.2227 6.3861 10.2227 9.3936V12.0374H7.17578V15.5061H10.2227V23.8916C10.8429 23.9888 11.4698 24.0375 12.0977 24.0374C12.7255 24.0375 13.3524 23.9888 13.9727 23.8916V15.5061H16.7687Z" fill="white"/>
</g>
<defs>
<clipPath id="clip0_1_140">
<rect width="24" height="24" fill="white" transform="translate(0.0976562 0.0373535)"/>
</clipPath>
</defs>
</svg>
