<svg width="25" height="25" viewBox="0 0 25 25" fill="none" xmlns="http://www.w3.org/2000/svg">
<g clip-path="url(#clip0_1_125)">
<path d="M18.4727 0.0373535H5.72266C2.61605 0.0373535 0.0976562 2.55575 0.0976562 5.66235V18.4124C0.0976562 21.519 2.61605 24.0374 5.72266 24.0374H18.4727C21.5793 24.0374 24.0977 21.519 24.0977 18.4124V5.66235C24.0977 2.55575 21.5793 0.0373535 18.4727 0.0373535Z" fill="url(#paint0_radial_1_125)"/>
<path d="M18.4727 0.0373535H5.72266C2.61605 0.0373535 0.0976562 2.55575 0.0976562 5.66235V18.4124C0.0976562 21.519 2.61605 24.0374 5.72266 24.0374H18.4727C21.5793 24.0374 24.0977 21.519 24.0977 18.4124V5.66235C24.0977 2.55575 21.5793 0.0373535 18.4727 0.0373535Z" fill="url(#paint1_radial_1_125)"/>
<path d="M12.0985 2.66235C9.55244 2.66235 9.23284 2.67351 8.23291 2.71898C7.23484 2.76473 6.55356 2.9227 5.9575 3.15454C5.34081 3.39398 4.81778 3.71432 4.29672 4.23557C3.77519 4.75673 3.45484 5.27976 3.21466 5.89617C2.98216 6.49242 2.824 7.17398 2.77909 8.17157C2.73437 9.1716 2.72266 9.49129 2.72266 12.0374C2.72266 14.5836 2.73391 14.9022 2.77928 15.9021C2.82522 16.9002 2.98319 17.5814 3.21484 18.1775C3.45447 18.7942 3.77481 19.3172 4.29606 19.8383C4.81703 20.3598 5.34006 20.6809 5.95628 20.9204C6.55281 21.1522 7.23419 21.3102 8.23206 21.3559C9.23209 21.4014 9.55141 21.4125 12.0974 21.4125C14.6437 21.4125 14.9623 21.4014 15.9622 21.3559C16.9603 21.3102 17.6423 21.1522 18.2388 20.9204C18.8552 20.6809 19.3775 20.3598 19.8984 19.8383C20.4199 19.3172 20.7402 18.7942 20.9805 18.1778C21.2109 17.5814 21.3692 16.9 21.416 15.9023C21.4609 14.9024 21.4727 14.5836 21.4727 12.0374C21.4727 9.49129 21.4609 9.17179 21.416 8.17176C21.3692 7.1737 21.2109 6.49251 20.9805 5.89645C20.7402 5.27976 20.4199 4.75673 19.8984 4.23557C19.377 3.71413 18.8554 3.39379 18.2383 3.15463C17.6406 2.9227 16.959 2.76463 15.9609 2.71898C14.9609 2.67351 14.6425 2.66235 12.0956 2.66235H12.0985ZM11.2575 4.35182C11.5071 4.35145 11.7857 4.35182 12.0985 4.35182C14.6017 4.35182 14.8983 4.36082 15.8868 4.40573C16.8009 4.44754 17.297 4.60026 17.6275 4.7286C18.065 4.89848 18.3769 5.10163 18.7049 5.42985C19.033 5.75798 19.2361 6.07045 19.4064 6.50798C19.5347 6.83798 19.6877 7.3341 19.7293 8.24817C19.7742 9.23648 19.7839 9.53329 19.7839 12.0353C19.7839 14.5373 19.7742 14.8342 19.7293 15.8224C19.6875 16.7365 19.5347 17.2326 19.4064 17.5627C19.2365 18.0002 19.033 18.3118 18.7049 18.6397C18.3768 18.9678 18.0652 19.1709 17.6275 19.3409C17.2974 19.4698 16.8009 19.6221 15.8868 19.6639C14.8985 19.7088 14.6017 19.7186 12.0985 19.7186C9.59519 19.7186 9.29847 19.7088 8.31025 19.6639C7.39619 19.6217 6.90006 19.469 6.56931 19.3407C6.13187 19.1707 5.81931 18.9676 5.49119 18.6395C5.16306 18.3114 4.96 17.9997 4.78966 17.5619C4.66131 17.2319 4.50841 16.7357 4.46678 15.8217C4.42188 14.8334 4.41287 14.5365 4.41287 12.0329C4.41287 9.52945 4.42188 9.23413 4.46678 8.24582C4.50859 7.33176 4.66131 6.83563 4.78966 6.50517C4.95963 6.06763 5.16306 5.75517 5.49128 5.42704C5.81941 5.09892 6.13187 4.89576 6.56941 4.72551C6.89987 4.5966 7.39619 4.44426 8.31025 4.40226C9.17509 4.36317 9.51025 4.35145 11.2575 4.34948V4.35182ZM17.1029 5.90845C16.4818 5.90845 15.9779 6.41189 15.9779 7.03307C15.9779 7.65417 16.4818 8.15807 17.1029 8.15807C17.724 8.15807 18.2279 7.65417 18.2279 7.03307C18.2279 6.41198 17.724 5.90807 17.1029 5.90807V5.90845ZM12.0985 7.22292C9.43975 7.22292 7.28406 9.3786 7.28406 12.0374C7.28406 14.6963 9.43975 16.8509 12.0985 16.8509C14.7573 16.8509 16.9123 14.6963 16.9123 12.0374C16.9123 9.3787 14.7572 7.22292 12.0983 7.22292H12.0985ZM12.0985 8.91238C13.8243 8.91238 15.2236 10.3114 15.2236 12.0374C15.2236 13.7633 13.8243 15.1625 12.0985 15.1625C10.3726 15.1625 8.97353 13.7633 8.97353 12.0374C8.97353 10.3114 10.3726 8.91238 12.0985 8.91238Z" fill="white"/>
</g>
<defs>
<radialGradient id="paint0_radial_1_125" cx="0" cy="0" r="1" gradientUnits="userSpaceOnUse" gradientTransform="translate(6.47266 25.8858) rotate(-90) scale(23.7858 22.1227)">
<stop stop-color="#FFDD55"/>
<stop offset="0.1" stop-color="#FFDD55"/>
<stop offset="0.5" stop-color="#FF543E"/>
<stop offset="1" stop-color="#C837AB"/>
</radialGradient>
<radialGradient id="paint1_radial_1_125" cx="0" cy="0" r="1" gradientUnits="userSpaceOnUse" gradientTransform="translate(-3.92244 1.7662) rotate(78.681) scale(10.6324 43.827)">
<stop stop-color="#3771C8"/>
<stop offset="0.128" stop-color="#3771C8"/>
<stop offset="1" stop-color="#6600FF" stop-opacity="0"/>
</radialGradient>
<clipPath id="clip0_1_125">
<rect width="24" height="24" fill="white" transform="translate(0.0976562 0.0373535)"/>
</clipPath>
</defs>
</svg>
