<svg width="25" height="25" viewBox="0 0 25 25" fill="none" xmlns="http://www.w3.org/2000/svg">
<g clip-path="url(#clip0_1_130)">
<path d="M18.4727 0.0373535H5.72266C2.61605 0.0373535 0.0976562 2.55575 0.0976562 5.66235V18.4124C0.0976562 21.519 2.61605 24.0374 5.72266 24.0374H18.4727C21.5793 24.0374 24.0977 21.519 24.0977 18.4124V5.66235C24.0977 2.55575 21.5793 0.0373535 18.4727 0.0373535Z" fill="white"/>
<path d="M18.4727 0.0373535H5.72266C2.61605 0.0373535 0.0976562 2.55575 0.0976562 5.66235V18.4124C0.0976562 21.519 2.61605 24.0374 5.72266 24.0374H18.4727C21.5793 24.0374 24.0977 21.519 24.0977 18.4124V5.66235C24.0977 2.55575 21.5793 0.0373535 18.4727 0.0373535Z" fill="#6493C2"/>
<path d="M18.8075 8.60713C18.8178 8.75591 18.8178 8.90469 18.8178 9.05488C18.8178 13.6296 15.3352 18.9057 8.96706 18.9057V18.9028C7.0858 18.9056 5.2435 18.3668 3.66016 17.3508C3.93372 17.3837 4.20859 17.4001 4.48422 17.4008C6.04344 17.402 7.5578 16.879 8.78397 15.9159C8.06153 15.9022 7.36141 15.6631 6.78151 15.2321C6.2016 14.801 5.77089 14.1995 5.54959 13.5117C6.06829 13.6117 6.60302 13.5913 7.11259 13.452C5.49747 13.1257 4.33544 11.7066 4.33544 10.0585V10.0146C4.81693 10.2828 5.35579 10.4314 5.90669 10.4479C4.3855 9.43119 3.91656 7.40741 4.83513 5.8251C5.70431 6.89469 6.78877 7.76948 8.01808 8.39263C9.24738 9.01579 10.594 9.37337 11.9705 9.44216C11.8333 8.85139 11.8536 8.23493 12.0293 7.65445C12.2051 7.07397 12.5302 6.5498 12.9721 6.13438C14.3665 4.82357 16.5596 4.89079 17.8704 6.28447C18.6457 6.1314 19.3892 5.84717 20.0689 5.44401C19.8105 6.24563 19.2696 6.92607 18.547 7.35876C19.2333 7.2779 19.9035 7.09418 20.5352 6.81379C20.0705 7.5096 19.4855 8.11683 18.8075 8.60713Z" fill="white"/>
</g>
<defs>
<clipPath id="clip0_1_130">
<rect width="24" height="24" fill="white" transform="translate(0.0976562 0.0373535)"/>
</clipPath>
</defs>
</svg>
