<svg width="25" height="25" viewBox="0 0 25 25" fill="none" xmlns="http://www.w3.org/2000/svg">
<g clip-path="url(#clip0_1_135)">
<path d="M18.4727 0.0373535H5.72266C2.61605 0.0373535 0.0976562 2.55575 0.0976562 5.66235V18.4124C0.0976562 21.519 2.61605 24.0374 5.72266 24.0374H18.4727C21.5793 24.0374 24.0977 21.519 24.0977 18.4124V5.66235C24.0977 2.55575 21.5793 0.0373535 18.4727 0.0373535Z" fill="white"/>
<path d="M18.4727 0.0373535H5.72266C2.61605 0.0373535 0.0976562 2.55575 0.0976562 5.66235V18.4124C0.0976562 21.519 2.61605 24.0374 5.72266 24.0374H18.4727C21.5793 24.0374 24.0977 21.519 24.0977 18.4124V5.66235C24.0977 2.55575 21.5793 0.0373535 18.4727 0.0373535Z" fill="#6493C2"/>
<path d="M17.4147 20.4453H20.1588C20.2582 20.4453 20.3536 20.4058 20.4239 20.3355C20.4942 20.2652 20.5337 20.1699 20.5338 20.0704L20.5352 14.2727C20.5352 11.2424 19.8822 8.91323 16.341 8.91323C14.9948 8.86317 13.7253 9.5571 13.0403 10.7159C13.037 10.7215 13.0319 10.7259 13.0258 10.7283C13.0197 10.7308 13.013 10.7312 13.0067 10.7295C13.0004 10.7278 12.9948 10.724 12.9908 10.7188C12.9868 10.7137 12.9846 10.7073 12.9845 10.7008V9.56798C12.9845 9.46852 12.945 9.37314 12.8747 9.30281C12.8044 9.23249 12.709 9.19298 12.6095 9.19298H10.0054C9.90598 9.19298 9.8106 9.23249 9.74027 9.30281C9.66995 9.37314 9.63044 9.46852 9.63044 9.56798V20.0699C9.63044 20.1693 9.66995 20.2647 9.74027 20.335C9.8106 20.4053 9.90598 20.4449 10.0054 20.4449H12.7493C12.8488 20.4449 12.9442 20.4053 13.0145 20.335C13.0848 20.2647 13.1243 20.1693 13.1243 20.0699V14.8786C13.1243 13.4108 13.4028 11.9893 15.2225 11.9893C17.0164 11.9893 17.0397 13.6689 17.0397 14.9737V20.0703C17.0397 20.1698 17.0792 20.2652 17.1495 20.3355C17.2198 20.4058 17.3152 20.4453 17.4147 20.4453ZM3.66016 5.62738C3.66016 6.73973 4.57581 7.65492 5.68816 7.65492C6.80022 7.65482 7.71531 6.73907 7.71531 5.62701C7.71512 4.51495 6.79994 3.59985 5.68778 3.59985C4.57534 3.59985 3.66016 4.51513 3.66016 5.62738ZM4.31256 20.4453H7.06009C7.15955 20.4453 7.25493 20.4058 7.32526 20.3355C7.39559 20.2652 7.43509 20.1698 7.43509 20.0703V9.56798C7.43509 9.46852 7.39559 9.37314 7.32526 9.30281C7.25493 9.23249 7.15955 9.19298 7.06009 9.19298H4.31256C4.21311 9.19298 4.11772 9.23249 4.0474 9.30281C3.97707 9.37314 3.93756 9.46852 3.93756 9.56798V20.0703C3.93756 20.1698 3.97707 20.2652 4.0474 20.3355C4.11772 20.4058 4.21311 20.4453 4.31256 20.4453Z" fill="white"/>
</g>
<defs>
<clipPath id="clip0_1_135">
<rect width="24" height="24" fill="white" transform="translate(0.0976562 0.0373535)"/>
</clipPath>
</defs>
</svg>
