<svg width="17" height="17" viewBox="0 0 17 17" fill="none" xmlns="http://www.w3.org/2000/svg">
<g clip-path="url(#clip0_1_146)">
<path d="M1.16016 8.00146C1.16016 9.85798 1.89765 11.6385 3.21041 12.9512C4.52316 14.264 6.30364 15.0015 8.16016 15.0015C10.0167 15.0015 11.7971 14.264 13.1099 12.9512C14.4227 11.6385 15.1602 9.85798 15.1602 8.00146C15.1602 6.14495 14.4227 4.36447 13.1099 3.05172C11.7971 1.73896 10.0167 1.00146 8.16016 1.00146C6.30364 1.00146 4.52316 1.73896 3.21041 3.05172C1.89765 4.36447 1.16016 6.14495 1.16016 8.00146ZM16.1602 8.00146C16.1602 10.1232 15.3173 12.158 13.817 13.6583C12.3167 15.1586 10.2819 16.0015 8.16016 16.0015C6.03842 16.0015 4.00359 15.1586 2.5033 13.6583C1.00301 12.158 0.160156 10.1232 0.160156 8.00146C0.160156 5.87973 1.00301 3.8449 2.5033 2.34461C4.00359 0.84432 6.03842 0.00146484 8.16016 0.00146484C10.2819 0.00146484 12.3167 0.84432 13.817 2.34461C15.3173 3.8449 16.1602 5.87973 16.1602 8.00146ZM8.30616 4.99346C7.09416 4.99346 6.37916 5.91346 6.37916 7.49546V8.55546C6.37916 10.1265 7.08216 11.0175 8.30616 11.0175C9.28516 11.0175 9.94716 10.4315 10.0352 9.59946H11.3302V9.69246C11.2302 11.1405 9.97616 12.1595 8.30016 12.1595C6.20916 12.1595 5.03116 10.8235 5.03116 8.55647V7.48346C5.03116 5.22246 6.23216 3.84546 8.30116 3.84546C9.98216 3.84546 11.2362 4.89946 11.3302 6.41746V6.50547H10.0352C9.94716 5.62646 9.26716 4.99346 8.30616 4.99346Z" fill="white"/>
</g>
<defs>
<clipPath id="clip0_1_146">
<rect width="16" height="16" fill="white" transform="translate(0.160156 0.00146484)"/>
</clipPath>
</defs>
</svg>
