<svg width="51" height="51" viewBox="0 0 51 51" fill="none" xmlns="http://www.w3.org/2000/svg">
<rect x="0.257568" y="0.61853" width="50" height="50" rx="25" fill="#C6E5FC"/>
<path d="M33.7576 22.3756V19.3756H19.7576V22.3756H33.7576ZM33.7576 16.3756C34.288 16.3756 34.7967 16.5863 35.1718 16.9614C35.5469 17.3365 35.7576 17.8452 35.7576 18.3756V28.3756C35.7576 28.906 35.5469 29.4148 35.1718 29.7898C34.7967 30.1649 34.288 30.3756 33.7576 30.3756H19.7576C19.2271 30.3756 18.7184 30.1649 18.3434 29.7898C17.9683 29.4148 17.7576 28.906 17.7576 28.3756V18.3756C17.7576 17.8452 17.9683 17.3365 18.3434 16.9614C18.7184 16.5863 19.2271 16.3756 19.7576 16.3756H33.7576ZM15.7576 32.3756H30.7576V34.3756H15.7576C15.2271 34.3756 14.7184 34.1649 14.3434 33.7898C13.9683 33.4148 13.7576 32.906 13.7576 32.3756V21.3756H15.7576V32.3756Z" fill="#131313"/>
</svg>
