<svg width="25" height="24" viewBox="0 0 25 24" fill="none" xmlns="http://www.w3.org/2000/svg">
<path d="M20.3678 12.7213L21.6602 14.1954L15.6325 21.085L12.4294 17.4259L13.7217 15.9518L15.6325 18.1263L20.3678 12.7213ZM10.1217 17.4259L12.8909 20.5622H3.66016V18.4713C3.66016 16.1609 6.96477 14.2895 11.0448 14.2895L12.7894 14.4045L10.1217 17.4259ZM11.0448 3.83496C12.024 3.83496 12.9632 4.27554 13.6556 5.05979C14.3481 5.84403 14.7371 6.90769 14.7371 8.01678C14.7371 9.12587 14.3481 10.1895 13.6556 10.9738C12.9632 11.758 12.024 12.1986 11.0448 12.1986C10.0655 12.1986 9.12636 11.758 8.43392 10.9738C7.74147 10.1895 7.35246 9.12587 7.35246 8.01678C7.35246 6.90769 7.74147 5.84403 8.43392 5.05979C9.12636 4.27554 10.0655 3.83496 11.0448 3.83496Z" fill="#131313"/>
</svg>
