<svg width="25" height="25" viewBox="0 0 25 25" fill="none" xmlns="http://www.w3.org/2000/svg">
<path d="M21.7576 9.37561V6.37561H7.75757V9.37561H21.7576ZM21.7576 3.37561C22.288 3.37561 22.7967 3.58632 23.1718 3.9614C23.5469 4.33647 23.7576 4.84518 23.7576 5.37561V15.3756C23.7576 15.906 23.5469 16.4148 23.1718 16.7898C22.7967 17.1649 22.288 17.3756 21.7576 17.3756H7.75757C7.22714 17.3756 6.71843 17.1649 6.34335 16.7898C5.96828 16.4148 5.75757 15.906 5.75757 15.3756V5.37561C5.75757 4.84518 5.96828 4.33647 6.34335 3.9614C6.71843 3.58632 7.22714 3.37561 7.75757 3.37561H21.7576ZM3.75757 19.3756H18.7576V21.3756H3.75757C3.22714 21.3756 2.71843 21.1649 2.34335 20.7898C1.96828 20.4148 1.75757 19.906 1.75757 19.3756V8.37561H3.75757V19.3756Z" fill="#131313"/>
</svg>
