<svg width="25" height="25" viewBox="0 0 25 25" fill="none" xmlns="http://www.w3.org/2000/svg">
<path d="M23.1601 12.6724C23.1625 12.98 23.069 13.2807 22.8926 13.5328C22.7162 13.7848 22.4656 13.9756 22.1758 14.0786L16.2283 16.2415L14.0664 22.188C13.9598 22.4751 13.768 22.7227 13.5166 22.8975C13.2652 23.0723 12.9664 23.166 12.6602 23.166C12.3539 23.166 12.0551 23.0723 11.8037 22.8975C11.5523 22.7227 11.3605 22.4751 11.2539 22.188L9.09109 16.2349L3.14453 14.0786C2.85746 13.9721 2.60988 13.7802 2.43505 13.5288C2.26022 13.2775 2.1665 12.9786 2.1665 12.6724C2.1665 12.3662 2.26022 12.0673 2.43505 11.8159C2.60988 11.5645 2.85746 11.3727 3.14453 11.2661L9.09765 9.10333L11.2539 3.15676C11.3605 2.8697 11.5523 2.62212 11.8037 2.44729C12.0551 2.27245 12.3539 2.17874 12.6602 2.17874C12.9664 2.17874 13.2652 2.27245 13.5166 2.44729C13.768 2.62212 13.9598 2.8697 14.0664 3.15676L16.2292 9.10989L22.1758 11.2661C22.4656 11.3692 22.7162 11.56 22.8926 11.812C23.069 12.064 23.1625 12.3648 23.1601 12.6724Z" fill="#131313"/>
</svg>
