<svg width="25" height="25" viewBox="0 0 25 25" fill="none" xmlns="http://www.w3.org/2000/svg">
<path d="M6.92016 21.8896H6.66016C5.71716 21.8896 5.24616 21.8896 4.95316 21.5966C4.66016 21.3046 4.66016 20.8336 4.66016 19.8906V18.7786C4.66016 18.2606 4.66016 18.0016 4.79316 17.7696C4.92616 17.5386 5.12716 17.4216 5.52916 17.1876C8.17516 15.6486 11.9312 14.7826 14.4392 16.2776C14.6072 16.3786 14.7592 16.5006 14.8892 16.6456C15.0235 16.7928 15.1269 16.9654 15.1934 17.1532C15.2599 17.3411 15.2882 17.5403 15.2764 17.7392C15.2647 17.9381 15.2132 18.1326 15.125 18.3113C15.0369 18.49 14.9138 18.6493 14.7632 18.7796C14.643 18.8938 14.4962 18.9763 14.3362 19.0196C14.4562 19.0056 14.5712 18.9896 14.6812 18.9726C15.5922 18.8276 16.3572 18.3396 17.0572 17.8106L18.8652 16.4456C19.1877 16.211 19.5763 16.0846 19.9752 16.0846C20.374 16.0846 20.7626 16.211 21.0852 16.4456C21.6582 16.8786 21.8342 17.5916 21.4712 18.1736C21.0482 18.8516 20.4522 19.7186 19.8802 20.2486C19.3072 20.7786 18.4542 21.2526 17.7582 21.5886C16.9862 21.9616 16.1342 22.1756 15.2672 22.3166C13.5092 22.6006 11.6772 22.5566 9.93716 22.1986C8.94445 21.9945 7.93363 21.8903 6.92016 21.8896ZM7.24616 3.08762C6.87916 3.45462 6.74216 3.96062 6.69116 4.75162C7.27735 4.74359 7.83726 4.50709 8.2517 4.09246C8.66615 3.67783 8.90239 3.11781 8.91016 2.53162C8.12016 2.58362 7.61316 2.72062 7.24616 3.08762ZM18.0742 3.08762C17.7072 2.72062 17.2012 2.58362 16.4102 2.53262C16.4182 3.11881 16.6547 3.67872 17.0693 4.09316C17.4839 4.50761 18.044 4.74385 18.6302 4.75162C18.5782 3.96162 18.4412 3.45462 18.0742 3.08762ZM18.0742 9.91562C17.7072 10.2826 17.2012 10.4196 16.4102 10.4706C16.4182 9.88443 16.6547 9.32452 17.0693 8.91007C17.4839 8.49563 18.044 8.25938 18.6302 8.25162C18.5782 9.04162 18.4412 9.54862 18.0742 9.91562ZM7.24616 9.91562C7.61316 10.2826 8.11916 10.4196 8.91016 10.4706C8.90213 9.88443 8.66563 9.32452 8.251 8.91007C7.83637 8.49563 7.27635 8.25938 6.69016 8.25162C6.74216 9.04162 6.87916 9.54862 7.24616 9.91562Z" fill="#131313"/>
<path fill-rule="evenodd" clip-rule="evenodd" d="M6.66016 6.25159C7.65472 6.25159 8.60855 5.8565 9.31181 5.15324C10.0151 4.44998 10.4102 3.49615 10.4102 2.50159H14.9102C14.9102 3.49615 15.3052 4.44998 16.0085 5.15324C16.7118 5.8565 17.6656 6.25159 18.6602 6.25159V6.75159C17.6656 6.75159 16.7118 7.14668 16.0085 7.84994C15.3052 8.5532 14.9102 9.50703 14.9102 10.5016H10.4102C10.4102 9.50703 10.0151 8.5532 9.31181 7.84994C8.60855 7.14668 7.65472 6.75159 6.66016 6.75159V6.25159ZM12.6602 7.50159C12.9254 7.50159 13.1797 7.39623 13.3673 7.20869C13.5548 7.02116 13.6602 6.7668 13.6602 6.50159C13.6602 6.23637 13.5548 5.98202 13.3673 5.79448C13.1797 5.60694 12.9254 5.50159 12.6602 5.50159C12.3949 5.50159 12.1406 5.60694 11.953 5.79448C11.7655 5.98202 11.6602 6.23637 11.6602 6.50159C11.6602 6.7668 11.7655 7.02116 11.953 7.20869C12.1406 7.39623 12.3949 7.50159 12.6602 7.50159Z" fill="#131313"/>
</svg>
