<svg width="143" height="124" viewBox="0 0 143 124" fill="none" xmlns="http://www.w3.org/2000/svg">
<g clip-path="url(#clip0_1_170)">
<path d="M107.016 0.501587C90.2383 29.5371 80.9684 44.0165 71.6219 44.0165C62.2753 44.0165 53.0054 29.5371 36.3043 0.501587C53.0054 29.5371 60.973 44.8592 56.2997 52.9033C51.6265 60.9474 34.389 61.7902 0.910156 61.7902C35.6148 61.7902 52.8522 62.6329 56.7594 71.5197C60.4367 79.7937 52.4692 95.0392 36.3043 123.079C53.0821 94.0433 62.352 79.5639 71.6985 79.5639C81.045 79.5639 90.3149 94.0433 107.093 123.079C89.3189 92.2046 81.5046 76.8825 88.0932 69.2214C93.9156 62.4797 111.076 61.7902 142.487 61.7902C107.093 61.7902 89.8552 60.8708 86.4077 51.4477C83.2667 43.0205 91.2342 27.8516 107.016 0.501587Z" fill="#EA984C"/>
</g>
<defs>
<clipPath id="clip0_1_170">
<rect width="141.5" height="122.577" fill="white" transform="translate(0.910156 0.501587)"/>
</clipPath>
</defs>
</svg>
